<svg width="48" height="48" viewBox="0 0 48 48" fill="none" xmlns="http://www.w3.org/2000/svg">
<path fill-rule="evenodd" clip-rule="evenodd" d="M11.5 48C17.8513 48 23 42.8513 23 36.5C23 30.1487 17.8513 25 11.5 25C5.14873 25 0 30.1487 0 36.5C0 42.8513 5.14873 48 11.5 48ZM47.9795 25C47.4689 37.4594 37.4594 47.4689 25 47.9795V25H47.9795ZM36.5 23C42.8513 23 48 17.8513 48 11.5C48 5.14873 42.8513 0 36.5 0C30.1487 0 25 5.14873 25 11.5C25 17.8513 30.1487 23 36.5 23ZM0.0205082 23C0.531178 10.5406 10.5406 0.531126 23 0.0204563L23.0001 23H0.0205082Z" fill="#F23440"/>
</svg>
